%TF.GenerationSoftware,Novarm,DipTrace,3.2.0.0*%
%TF.CreationDate,2018-02-09T11:51:20+05:00*%
%FSLAX35Y35*%
%MOMM*%
%TF.FileFunction,Copper,L2,Bot*%
%TF.Part,Single*%
%TA.AperFunction,Nonconductor*%
%ADD21C,1.905*%
%ADD22C,1.9812*%
%ADD23C,1.778*%
%ADD24C,0.6096*%
%TA.AperFunction,ComponentPad*%
%ADD25C,3.19999*%
%ADD26C,0.889*%
%ADD27C,0.9652*%
%ADD28C,0.762*%
G75*
G01*
%LPD*%
D25*
X249682Y4807712D3*
X4059682D3*
X249682Y235712D3*
X4059682D3*
D26*
X2027682Y3918712D3*
Y1886712D3*
X1265682Y2394712D3*
X2281682Y2648712D3*
X2027682Y2394712D3*
X1265682Y1378712D3*
Y1886712D3*
Y4172712D3*
Y2140712D3*
X3043682Y997458D3*
X2027682Y2140712D3*
X3043682Y743458D3*
X1265682Y1632712D3*
X2027682Y2902712D3*
X1265682D3*
Y3664712D3*
X2027682Y1632712D3*
Y3410712D3*
X1265682D3*
X3297682Y2648712D3*
X1265682D3*
X2027682Y1378712D3*
Y4172712D3*
X1265682Y3156712D3*
X2027682Y3664712D3*
Y2648712D3*
X1265682Y3918712D3*
X2027682Y3156712D3*
D27*
X376682Y3664712D3*
X3805682Y3156712D3*
X376682Y2394712D3*
X2027682Y997458D3*
X1519682Y4680712D3*
X376682Y3410712D3*
Y2902712D3*
X3805682Y3410712D3*
X1265682Y743458D3*
X1519682Y997458D3*
X376682Y3156712D3*
X3805682Y2394712D3*
X1519682Y743458D3*
X376682Y2648712D3*
Y2140712D3*
X1773682Y743458D3*
X3805682Y3664712D3*
Y2648712D3*
X1265682Y997458D3*
X376682Y1886712D3*
X2027682Y743458D3*
X3805682Y2902712D3*
X1773682Y4680712D3*
Y997458D3*
X3805682Y2140712D3*
Y1886712D3*
D28*
X3678682Y997458D3*
Y743458D3*
D21*
X1264920Y4173220D3*
X2026920D3*
X1264920Y3919220D3*
X2026920D3*
X1264920Y3665220D3*
X2026920D3*
X1264920Y3411220D3*
X2026920D3*
X1264920Y3157220D3*
X2026920D3*
X1264920Y2903220D3*
X2026920D3*
X1264920Y2649220D3*
X2026920D3*
X1264920Y2395220D3*
X2026920D3*
X1264920Y2141220D3*
X2026920D3*
X1264920Y1887220D3*
X2026920D3*
X1264920Y1633220D3*
X2026920D3*
X1264920Y1379220D3*
X2026920D3*
X2280920Y2649220D3*
X3296920D3*
D22*
X1518920Y4681220D3*
X1772920D3*
X1264920Y998220D3*
X1518920D3*
X1772920D3*
X2026920D3*
X1264920Y744220D3*
X1518920D3*
X1772920D3*
X2026920D3*
X3804920Y3665220D3*
Y3411220D3*
Y3157220D3*
Y2903220D3*
Y2649220D3*
Y2395220D3*
Y2141220D3*
Y1887220D3*
X375920Y3665220D3*
Y3411220D3*
Y3157220D3*
Y2903220D3*
Y2649220D3*
Y2395220D3*
Y2141220D3*
Y1887220D3*
D21*
X3042920Y744220D3*
Y998220D3*
D23*
X3677920Y744220D3*
Y998220D3*
G36*
X1360170Y4077970D2*
X1169670D1*
Y4268470D1*
X1360170D1*
Y4077970D1*
G37*
G36*
X3138170Y648970D2*
X2947670D1*
Y839470D1*
X3138170D1*
Y648970D1*
G37*
X1338580Y2141220D2*
D24*
X1516380Y2143760D1*
X1513840Y3408680D2*
X1516380Y2143760D1*
X1338580Y3411220D2*
X1513840Y3408680D1*
X3042920Y2903220D2*
X2100580D1*
X3246120Y2700020D2*
X3042920Y2903220D1*
X2209800Y2649220D2*
X2100580D1*
X1513840Y4048760D2*
X1330960Y4140200D1*
X1518920Y4605020D2*
X1513840Y4048760D1*
X1770380D2*
X1963420Y4140200D1*
X1772920Y4605020D2*
X1770380Y4048760D1*
X629920Y1887220D2*
X452120D1*
X886460Y1630680D2*
X629920Y1887220D1*
X1193800Y1633220D2*
X886460Y1630680D1*
X1013460Y1887220D2*
X756920Y2138680D1*
X452120Y2141220D1*
X1193800Y1887220D2*
X1013460D1*
X881380Y3919220D2*
X624840Y3665220D1*
X452120D1*
X1193800Y3919220D2*
X881380D1*
X1013460Y3665220D2*
X756920Y3411220D1*
X452120D1*
X1193800Y3665220D2*
X1013460D1*
X1193800Y3157220D2*
X452120D1*
X1193800Y2903220D2*
X452120D1*
X1193800Y2649220D2*
X452120D1*
X1193800Y2395220D2*
X452120D1*
X3296920Y1630680D2*
X2100580Y1633220D1*
X3550920Y1887220D2*
X3296920Y1630680D1*
X3728720Y1887220D2*
X3550920D1*
X3296920D2*
X2100580D1*
X3550920Y2141220D2*
X3296920Y1887220D1*
X3728720Y2141220D2*
X3550920D1*
X3296920D2*
X2100580D1*
X3550920Y2395220D2*
X3296920Y2141220D1*
X3728720Y2395220D2*
X3550920D1*
X3296920D2*
X2100580D1*
X3550920Y2649220D2*
X3296920Y2395220D1*
X3728720Y2649220D2*
X3550920D1*
X3299460Y3916680D2*
X2100580Y3919220D1*
X3550920Y3665220D2*
X3299460Y3916680D1*
X3728720Y3665220D2*
X3550920D1*
X3299460D2*
X2100580D1*
X3550920Y3408680D2*
X3299460Y3665220D1*
X3728720Y3411220D2*
X3550920Y3408680D1*
X3299460D2*
X2100580Y3411220D1*
X3550920Y3157220D2*
X3299460Y3408680D1*
X3728720Y3157220D2*
X3550920D1*
X3299460D2*
X2100580D1*
X3550920Y2903220D2*
X3299460Y3157220D1*
X3728720Y2903220D2*
X3550920D1*
X1264920Y1074420D2*
Y1305560D1*
X2026920Y1074420D2*
Y1305560D1*
X1516380Y2143760D2*
X1518920Y1074420D1*
X1778000Y2900680D2*
X1772920Y1074420D1*
X1955800Y2900680D2*
X1778000D1*
X2788920Y1000760D2*
X2971800Y998220D1*
X2283460Y487680D2*
X2788920Y1000760D1*
X1770380Y612140D2*
X1902460Y487680D1*
X2283460D1*
X1772920Y668020D2*
X1770380Y612140D1*
X1264920Y820420D2*
Y922020D1*
X1518920Y820420D2*
Y922020D1*
X1772920Y820420D2*
Y922020D1*
X2026920Y820420D2*
Y922020D1*
X2921000Y744220D2*
X2407920Y231140D1*
X1902460D1*
X1521460Y612140D2*
Y668020D1*
X1902460Y231140D2*
X1521460Y612140D1*
X2971800Y744220D2*
X2921000D1*
X3611880Y998220D2*
X3116580D1*
X3611880Y744220D2*
X3116580D1*
M02*
