M48
INCH
T01C0.03
T02C0.035
T03C0.038
T04C0.126
%
T01
X+014483Y+003927
X+014483Y+002927
T02
X+007983Y+015428
X+007983Y+014428
X+007983Y+013428
X+007983Y+012428
X+007983Y+011428
X+007983Y+010428
X+007983Y+009428
X+007983Y+008428
X+007983Y+007428
X+007983Y+006428
X+007983Y+005428
X+004983Y+005428
X+004983Y+006428
X+004983Y+007428
X+004983Y+008428
X+004983Y+009428
X+004983Y+010428
X+004983Y+011428
X+004983Y+012428
X+004983Y+013428
X+004983Y+014428
X+004983Y+015428
X+004983Y+016428
X+007983Y+016428
X+008983Y+010428
X+012983Y+010428
X+011983Y+003927
X+011983Y+002927
T03
X+001483Y+014428
X+001483Y+013428
X+001483Y+012428
X+001483Y+011428
X+001483Y+010428
X+001483Y+009428
X+001483Y+008428
X+001483Y+007428
X+004983Y+003927
X+004983Y+002927
X+005983Y+002927
X+006983Y+002927
X+007983Y+002927
X+007983Y+003927
X+006983Y+003927
X+005983Y+003927
X+014983Y+007428
X+014983Y+008428
X+014983Y+009428
X+014983Y+010428
X+014983Y+011428
X+014983Y+012428
X+014983Y+013428
X+014983Y+014428
X+006983Y+018428
X+005983Y+018428
T04
X+000983Y+018928
X+015983Y+018928
X+015983Y+000928
X+000983Y+000928
T00
M30
