G04 MADE WITH FRITZING*
G04 WWW.FRITZING.ORG*
G04 SINGLE SIDED*
G04 HOLES NOT PLATED*
G04 CONTOUR ON CENTER OF CONTOUR VECTOR*
%ASAXBY*%
%FSLAX23Y23*%
%MOIN*%
%OFA0B0*%
%SFA1.0B1.0*%
%ADD10C,0.075000*%
%ADD11C,0.078000*%
%ADD12C,0.070000*%
%ADD13R,0.075000X0.075000*%
%ADD14C,0.024000*%
%LNCOPPER0*%
G90*
G70*
G54D10*
X498Y1643D03*
X798Y1643D03*
X498Y1543D03*
X798Y1543D03*
X498Y1443D03*
X798Y1443D03*
X498Y1343D03*
X798Y1343D03*
X498Y1243D03*
X798Y1243D03*
X498Y1143D03*
X798Y1143D03*
X498Y1043D03*
X798Y1043D03*
X498Y943D03*
X798Y943D03*
X498Y843D03*
X798Y843D03*
X498Y743D03*
X798Y743D03*
X498Y643D03*
X798Y643D03*
X498Y543D03*
X798Y543D03*
X898Y1043D03*
X1298Y1043D03*
G54D11*
X598Y1843D03*
X698Y1843D03*
X498Y393D03*
X598Y393D03*
X698Y393D03*
X798Y393D03*
X498Y293D03*
X598Y293D03*
X698Y293D03*
X798Y293D03*
X1498Y1443D03*
X1498Y1343D03*
X1498Y1243D03*
X1498Y1143D03*
X1498Y1043D03*
X1498Y943D03*
X1498Y843D03*
X1498Y743D03*
X148Y1443D03*
X148Y1343D03*
X148Y1243D03*
X148Y1143D03*
X148Y1043D03*
X148Y943D03*
X148Y843D03*
X148Y743D03*
G54D10*
X1198Y293D03*
X1198Y393D03*
G54D12*
X1448Y293D03*
X1448Y393D03*
G54D13*
X498Y1643D03*
X1198Y293D03*
G54D14*
X527Y843D02*
X597Y844D01*
D02*
X596Y1342D02*
X597Y844D01*
D02*
X527Y1343D02*
X596Y1342D01*
D02*
X1198Y1143D02*
X827Y1143D01*
D02*
X1278Y1063D02*
X1198Y1143D01*
D02*
X870Y1043D02*
X827Y1043D01*
D02*
X596Y1594D02*
X524Y1630D01*
D02*
X598Y1813D02*
X596Y1594D01*
D02*
X697Y1594D02*
X773Y1630D01*
D02*
X698Y1813D02*
X697Y1594D01*
D02*
X248Y743D02*
X178Y743D01*
D02*
X349Y642D02*
X248Y743D01*
D02*
X470Y643D02*
X349Y642D01*
D02*
X399Y743D02*
X298Y842D01*
D02*
X298Y842D02*
X178Y843D01*
D02*
X470Y743D02*
X399Y743D01*
D02*
X347Y1543D02*
X246Y1443D01*
D02*
X246Y1443D02*
X178Y1443D01*
D02*
X470Y1543D02*
X347Y1543D01*
D02*
X399Y1443D02*
X298Y1343D01*
D02*
X298Y1343D02*
X178Y1343D01*
D02*
X470Y1443D02*
X399Y1443D01*
D02*
X470Y1243D02*
X178Y1243D01*
D02*
X470Y1143D02*
X178Y1143D01*
D02*
X470Y1043D02*
X178Y1043D01*
D02*
X470Y943D02*
X178Y943D01*
D02*
X1298Y642D02*
X827Y643D01*
D02*
X1398Y743D02*
X1298Y642D01*
D02*
X1468Y743D02*
X1398Y743D01*
D02*
X1298Y743D02*
X827Y743D01*
D02*
X1398Y843D02*
X1298Y743D01*
D02*
X1468Y843D02*
X1398Y843D01*
D02*
X1298Y843D02*
X827Y843D01*
D02*
X1398Y943D02*
X1298Y843D01*
D02*
X1468Y943D02*
X1398Y943D01*
D02*
X1298Y943D02*
X827Y943D01*
D02*
X1398Y1043D02*
X1298Y943D01*
D02*
X1468Y1043D02*
X1398Y1043D01*
D02*
X1299Y1542D02*
X827Y1543D01*
D02*
X1398Y1443D02*
X1299Y1542D01*
D02*
X1468Y1443D02*
X1398Y1443D01*
D02*
X1299Y1443D02*
X827Y1443D01*
D02*
X1398Y1342D02*
X1299Y1443D01*
D02*
X1468Y1343D02*
X1398Y1342D01*
D02*
X1299Y1342D02*
X827Y1343D01*
D02*
X1398Y1243D02*
X1299Y1342D01*
D02*
X1468Y1243D02*
X1398Y1243D01*
D02*
X1299Y1243D02*
X827Y1243D01*
D02*
X1398Y1143D02*
X1299Y1243D01*
D02*
X1468Y1143D02*
X1398Y1143D01*
D02*
X498Y423D02*
X498Y514D01*
D02*
X798Y423D02*
X798Y514D01*
D02*
X597Y844D02*
X598Y423D01*
D02*
X700Y1142D02*
X698Y423D01*
D02*
X770Y1142D02*
X700Y1142D01*
D02*
X1098Y394D02*
X1170Y393D01*
D02*
X899Y192D02*
X1098Y394D01*
D02*
X697Y241D02*
X749Y192D01*
D02*
X749Y192D02*
X899Y192D01*
D02*
X698Y263D02*
X697Y241D01*
D02*
X498Y323D02*
X498Y363D01*
D02*
X598Y323D02*
X598Y363D01*
D02*
X698Y323D02*
X698Y363D01*
D02*
X798Y323D02*
X798Y363D01*
D02*
X1150Y293D02*
X948Y91D01*
D02*
X948Y91D02*
X749Y91D01*
D02*
X599Y241D02*
X599Y263D01*
D02*
X749Y91D02*
X599Y241D01*
D02*
X1170Y293D02*
X1150Y293D01*
D02*
X1422Y393D02*
X1227Y393D01*
D02*
X1422Y293D02*
X1227Y293D01*
G04 End of Copper0*
M02*