; NON-PLATED HOLES START AT T1
; THROUGH (PLATED) HOLES START AT T100
M48
INCH,LZ
T1C0.125984
T100C0.035000
T101C0.038000
T102C0.030000
%
T1
X000983Y018928
X015983Y018928
X000983Y000928
X015983Y000928
T100
X007983Y015428
X007983Y007428
X004983Y009428
X008983Y010428
X007983Y009428
X004983Y005428
X004983Y007428
X004983Y016428
X004983Y008428
X011983Y003927
X007983Y008428
X011983Y002927
X004983Y006428
X007983Y011428
X004983Y011428
X004983Y014428
X007983Y006428
X007983Y013428
X004983Y013428
X012983Y010428
X004983Y010428
X007983Y005428
X007983Y016428
X004983Y012428
X007983Y014428
X007983Y010428
X004983Y015428
X007983Y012428
T101
X001483Y014428
X014983Y012428
X001483Y009428
X007983Y003927
X005983Y018428
X001483Y013428
X001483Y011428
X014983Y013428
X004983Y002927
X005983Y003927
X001483Y012428
X014983Y009428
X005983Y002927
X001483Y010428
X001483Y008428
X006983Y002927
X014983Y014428
X014983Y010428
X004983Y003927
X001483Y007428
X007983Y002927
X014983Y011428
X006983Y018428
X006983Y003927
X014983Y008428
X014983Y007428
T102
X014483Y003927
X014483Y002927
T00
M30
