G04 MADE WITH FRITZING*
G04 WWW.FRITZING.ORG*
G04 SINGLE SIDED*
G04 HOLES NOT PLATED*
G04 CONTOUR ON CENTER OF CONTOUR VECTOR*
%ASAXBY*%
%FSLAX23Y23*%
%MOIN*%
%OFA0B0*%
%SFA1.0B1.0*%
%ADD10C,0.085000*%
%ADD11C,0.088000*%
%ADD12C,0.135984*%
%ADD13C,0.080000*%
%ADD14R,0.085000X0.085000*%
%LNMASK0*%
G90*
G70*
G54D10*
X498Y1643D03*
X798Y1643D03*
X498Y1543D03*
X798Y1543D03*
X498Y1443D03*
X798Y1443D03*
X498Y1343D03*
X798Y1343D03*
X498Y1243D03*
X798Y1243D03*
X498Y1143D03*
X798Y1143D03*
X498Y1043D03*
X798Y1043D03*
X498Y943D03*
X798Y943D03*
X498Y843D03*
X798Y843D03*
X498Y743D03*
X798Y743D03*
X498Y643D03*
X798Y643D03*
X498Y543D03*
X798Y543D03*
X898Y1043D03*
X1298Y1043D03*
G54D11*
X598Y1843D03*
X698Y1843D03*
X498Y393D03*
X598Y393D03*
X698Y393D03*
X798Y393D03*
X498Y293D03*
X598Y293D03*
X698Y293D03*
X798Y293D03*
X1498Y1443D03*
X1498Y1343D03*
X1498Y1243D03*
X1498Y1143D03*
X1498Y1043D03*
X1498Y943D03*
X1498Y843D03*
X1498Y743D03*
X148Y1443D03*
X148Y1343D03*
X148Y1243D03*
X148Y1143D03*
X148Y1043D03*
X148Y943D03*
X148Y843D03*
X148Y743D03*
G54D10*
X1198Y293D03*
X1198Y393D03*
G54D12*
X98Y93D03*
X1598Y1893D03*
X98Y1893D03*
X1598Y93D03*
G54D13*
X1448Y293D03*
X1448Y393D03*
G54D14*
X498Y1643D03*
X1198Y293D03*
G04 End of Mask0*
M02*