G04 MADE WITH FRITZING*
G04 WWW.FRITZING.ORG*
G04 SINGLE SIDED*
G04 HOLES NOT PLATED*
G04 CONTOUR ON CENTER OF CONTOUR VECTOR*
%ASAXBY*%
%FSLAX23Y23*%
%MOIN*%
%OFA0B0*%
%SFA1.0B1.0*%
%ADD10C,0.210000X0.19*%
%ADD11R,1.703860X1.983520X1.687860X1.967520*%
%ADD12C,0.008000*%
%ADD13C,0.010000*%
%ADD14C,0.005000*%
%ADD15R,0.001000X0.001000*%
%LNSILK1*%
G90*
G70*
G54D10*
X1198Y343D03*
G54D12*
X4Y1980D02*
X1700Y1980D01*
X1700Y4D01*
X4Y4D01*
X4Y1980D01*
D02*
G54D13*
X448Y1693D02*
X448Y493D01*
D02*
X448Y493D02*
X848Y493D01*
D02*
X848Y493D02*
X848Y1693D01*
D02*
X448Y1693D02*
X598Y1693D01*
D02*
X698Y1693D02*
X848Y1693D01*
D02*
X936Y1043D02*
X1008Y1043D01*
D02*
X1208Y1043D02*
X1261Y1043D01*
D02*
X1008Y1076D02*
X1208Y1076D01*
D02*
X1208Y1076D02*
X1208Y1010D01*
D02*
X1208Y1010D02*
X1008Y1010D01*
D02*
X1008Y1010D02*
X1008Y1076D01*
D02*
X548Y1793D02*
X748Y1793D01*
D02*
X748Y1793D02*
X748Y1893D01*
D02*
X748Y1893D02*
X548Y1893D01*
D02*
X548Y1893D02*
X548Y1793D01*
G54D14*
D02*
X583Y1793D02*
X548Y1828D01*
G54D13*
D02*
X448Y343D02*
X848Y343D01*
D02*
X848Y343D02*
X848Y443D01*
D02*
X848Y443D02*
X448Y443D01*
D02*
X448Y443D02*
X448Y343D01*
G54D14*
D02*
X483Y343D02*
X448Y378D01*
G54D13*
D02*
X1448Y1493D02*
X1448Y693D01*
D02*
X1448Y693D02*
X1548Y693D01*
D02*
X1548Y693D02*
X1548Y1493D01*
D02*
X1548Y1493D02*
X1448Y1493D01*
G54D14*
D02*
X1448Y1458D02*
X1483Y1493D01*
G54D13*
D02*
X98Y1493D02*
X98Y693D01*
D02*
X98Y693D02*
X198Y693D01*
D02*
X198Y693D02*
X198Y1493D01*
D02*
X198Y1493D02*
X98Y1493D01*
G54D14*
D02*
X98Y1458D02*
X133Y1493D01*
G54D13*
D02*
X448Y243D02*
X848Y243D01*
D02*
X848Y243D02*
X848Y343D01*
D02*
X848Y343D02*
X448Y343D01*
D02*
X448Y343D02*
X448Y243D01*
G54D14*
D02*
X483Y243D02*
X448Y278D01*
G54D15*
X448Y1984D02*
X454Y1984D01*
X495Y1984D02*
X501Y1984D01*
X448Y1983D02*
X454Y1983D01*
X495Y1983D02*
X501Y1983D01*
X448Y1982D02*
X454Y1982D01*
X495Y1982D02*
X501Y1982D01*
X448Y1981D02*
X454Y1981D01*
X495Y1981D02*
X501Y1981D01*
X448Y1980D02*
X454Y1980D01*
X495Y1980D02*
X501Y1980D01*
X448Y1979D02*
X454Y1979D01*
X495Y1979D02*
X501Y1979D01*
X448Y1978D02*
X454Y1978D01*
X495Y1978D02*
X501Y1978D01*
X448Y1977D02*
X454Y1977D01*
X495Y1977D02*
X501Y1977D01*
X448Y1976D02*
X454Y1976D01*
X495Y1976D02*
X501Y1976D01*
X448Y1975D02*
X454Y1975D01*
X495Y1975D02*
X501Y1975D01*
X448Y1974D02*
X454Y1974D01*
X496Y1974D02*
X501Y1974D01*
X449Y1973D02*
X453Y1973D01*
X496Y1973D02*
X501Y1973D01*
X450Y1972D02*
X452Y1972D01*
X497Y1972D02*
X499Y1972D01*
X450Y1952D02*
X495Y1952D01*
X449Y1951D02*
X497Y1951D01*
X448Y1950D02*
X498Y1950D01*
X448Y1949D02*
X499Y1949D01*
X449Y1948D02*
X500Y1948D01*
X449Y1947D02*
X500Y1947D01*
X451Y1946D02*
X501Y1946D01*
X494Y1945D02*
X501Y1945D01*
X495Y1944D02*
X501Y1944D01*
X495Y1943D02*
X501Y1943D01*
X495Y1942D02*
X501Y1942D01*
X495Y1941D02*
X501Y1941D01*
X495Y1940D02*
X501Y1940D01*
X495Y1939D02*
X501Y1939D01*
X495Y1938D02*
X501Y1938D01*
X495Y1937D02*
X501Y1937D01*
X495Y1936D02*
X501Y1936D01*
X495Y1935D02*
X501Y1935D01*
X495Y1934D02*
X501Y1934D01*
X494Y1933D02*
X501Y1933D01*
X481Y1932D02*
X501Y1932D01*
X479Y1931D02*
X500Y1931D01*
X478Y1930D02*
X500Y1930D01*
X478Y1929D02*
X499Y1929D01*
X478Y1928D02*
X498Y1928D01*
X478Y1927D02*
X497Y1927D01*
X479Y1926D02*
X495Y1926D01*
X636Y1631D02*
X655Y1631D01*
X635Y1630D02*
X657Y1630D01*
X634Y1629D02*
X657Y1629D01*
X634Y1628D02*
X657Y1628D01*
X634Y1627D02*
X658Y1627D01*
X634Y1626D02*
X658Y1626D01*
X635Y1625D02*
X658Y1625D01*
X651Y1624D02*
X658Y1624D01*
X651Y1623D02*
X658Y1623D01*
X651Y1622D02*
X658Y1622D01*
X651Y1621D02*
X658Y1621D01*
X651Y1620D02*
X658Y1620D01*
X651Y1619D02*
X658Y1619D01*
X651Y1618D02*
X658Y1618D01*
X604Y1617D02*
X658Y1617D01*
X604Y1616D02*
X658Y1616D01*
X604Y1615D02*
X658Y1615D01*
X604Y1614D02*
X658Y1614D01*
X604Y1613D02*
X658Y1613D01*
X604Y1612D02*
X658Y1612D01*
X604Y1611D02*
X658Y1611D01*
X604Y1610D02*
X610Y1610D01*
X651Y1610D02*
X658Y1610D01*
X604Y1609D02*
X610Y1609D01*
X651Y1609D02*
X658Y1609D01*
X604Y1608D02*
X610Y1608D01*
X651Y1608D02*
X658Y1608D01*
X604Y1607D02*
X610Y1607D01*
X651Y1607D02*
X658Y1607D01*
X604Y1606D02*
X610Y1606D01*
X651Y1606D02*
X658Y1606D01*
X604Y1605D02*
X610Y1605D01*
X651Y1605D02*
X658Y1605D01*
X604Y1604D02*
X610Y1604D01*
X651Y1604D02*
X658Y1604D01*
X604Y1603D02*
X610Y1603D01*
X651Y1603D02*
X658Y1603D01*
X604Y1602D02*
X610Y1602D01*
X651Y1602D02*
X658Y1602D01*
X604Y1601D02*
X610Y1601D01*
X651Y1601D02*
X658Y1601D01*
X604Y1600D02*
X610Y1600D01*
X652Y1600D02*
X657Y1600D01*
X605Y1599D02*
X610Y1599D01*
X652Y1599D02*
X657Y1599D01*
X605Y1598D02*
X609Y1598D01*
X652Y1598D02*
X657Y1598D01*
X607Y1597D02*
X608Y1597D01*
X654Y1597D02*
X655Y1597D01*
X606Y1531D02*
X608Y1531D01*
X654Y1531D02*
X655Y1531D01*
X605Y1530D02*
X610Y1530D01*
X652Y1530D02*
X657Y1530D01*
X605Y1529D02*
X612Y1529D01*
X650Y1529D02*
X657Y1529D01*
X604Y1528D02*
X614Y1528D01*
X648Y1528D02*
X657Y1528D01*
X604Y1527D02*
X615Y1527D01*
X647Y1527D02*
X657Y1527D01*
X605Y1526D02*
X617Y1526D01*
X645Y1526D02*
X657Y1526D01*
X606Y1525D02*
X619Y1525D01*
X643Y1525D02*
X656Y1525D01*
X607Y1524D02*
X620Y1524D01*
X641Y1524D02*
X654Y1524D01*
X609Y1523D02*
X622Y1523D01*
X640Y1523D02*
X653Y1523D01*
X611Y1522D02*
X624Y1522D01*
X638Y1522D02*
X651Y1522D01*
X613Y1521D02*
X625Y1521D01*
X636Y1521D02*
X649Y1521D01*
X614Y1520D02*
X627Y1520D01*
X635Y1520D02*
X648Y1520D01*
X616Y1519D02*
X629Y1519D01*
X633Y1519D02*
X646Y1519D01*
X618Y1518D02*
X644Y1518D01*
X619Y1517D02*
X642Y1517D01*
X621Y1516D02*
X641Y1516D01*
X623Y1515D02*
X639Y1515D01*
X624Y1514D02*
X638Y1514D01*
X623Y1513D02*
X639Y1513D01*
X621Y1512D02*
X641Y1512D01*
X619Y1511D02*
X643Y1511D01*
X617Y1510D02*
X644Y1510D01*
X616Y1509D02*
X629Y1509D01*
X633Y1509D02*
X646Y1509D01*
X614Y1508D02*
X627Y1508D01*
X635Y1508D02*
X648Y1508D01*
X612Y1507D02*
X625Y1507D01*
X636Y1507D02*
X649Y1507D01*
X611Y1506D02*
X624Y1506D01*
X638Y1506D02*
X651Y1506D01*
X609Y1505D02*
X622Y1505D01*
X640Y1505D02*
X653Y1505D01*
X607Y1504D02*
X620Y1504D01*
X642Y1504D02*
X655Y1504D01*
X606Y1503D02*
X619Y1503D01*
X643Y1503D02*
X656Y1503D01*
X605Y1502D02*
X617Y1502D01*
X645Y1502D02*
X657Y1502D01*
X604Y1501D02*
X615Y1501D01*
X647Y1501D02*
X657Y1501D01*
X604Y1500D02*
X613Y1500D01*
X648Y1500D02*
X657Y1500D01*
X605Y1499D02*
X612Y1499D01*
X650Y1499D02*
X657Y1499D01*
X605Y1498D02*
X610Y1498D01*
X652Y1498D02*
X657Y1498D01*
X607Y1497D02*
X608Y1497D01*
X654Y1497D02*
X655Y1497D01*
X653Y1481D02*
X656Y1481D01*
X650Y1480D02*
X657Y1480D01*
X647Y1479D02*
X657Y1479D01*
X643Y1478D02*
X657Y1478D01*
X640Y1477D02*
X657Y1477D01*
X636Y1476D02*
X657Y1476D01*
X633Y1475D02*
X656Y1475D01*
X629Y1474D02*
X653Y1474D01*
X626Y1473D02*
X650Y1473D01*
X623Y1472D02*
X646Y1472D01*
X619Y1471D02*
X646Y1471D01*
X616Y1470D02*
X646Y1470D01*
X612Y1469D02*
X636Y1469D01*
X640Y1469D02*
X646Y1469D01*
X609Y1468D02*
X633Y1468D01*
X640Y1468D02*
X646Y1468D01*
X606Y1467D02*
X630Y1467D01*
X640Y1467D02*
X646Y1467D01*
X605Y1466D02*
X626Y1466D01*
X640Y1466D02*
X646Y1466D01*
X605Y1465D02*
X623Y1465D01*
X640Y1465D02*
X646Y1465D01*
X604Y1464D02*
X620Y1464D01*
X640Y1464D02*
X646Y1464D01*
X605Y1463D02*
X623Y1463D01*
X640Y1463D02*
X646Y1463D01*
X605Y1462D02*
X626Y1462D01*
X640Y1462D02*
X646Y1462D01*
X606Y1461D02*
X630Y1461D01*
X640Y1461D02*
X646Y1461D01*
X609Y1460D02*
X633Y1460D01*
X640Y1460D02*
X646Y1460D01*
X613Y1459D02*
X637Y1459D01*
X640Y1459D02*
X646Y1459D01*
X616Y1458D02*
X646Y1458D01*
X619Y1457D02*
X646Y1457D01*
X623Y1456D02*
X647Y1456D01*
X626Y1455D02*
X650Y1455D01*
X630Y1454D02*
X654Y1454D01*
X633Y1453D02*
X656Y1453D01*
X636Y1452D02*
X657Y1452D01*
X640Y1451D02*
X657Y1451D01*
X643Y1450D02*
X657Y1450D01*
X647Y1449D02*
X657Y1449D01*
X650Y1448D02*
X657Y1448D01*
X654Y1447D02*
X656Y1447D01*
X604Y1431D02*
X655Y1431D01*
X604Y1430D02*
X657Y1430D01*
X604Y1429D02*
X657Y1429D01*
X604Y1428D02*
X657Y1428D01*
X604Y1427D02*
X657Y1427D01*
X604Y1426D02*
X657Y1426D01*
X604Y1425D02*
X656Y1425D01*
X604Y1424D02*
X614Y1424D01*
X604Y1423D02*
X615Y1423D01*
X605Y1422D02*
X616Y1422D01*
X607Y1421D02*
X618Y1421D01*
X608Y1420D02*
X619Y1420D01*
X609Y1419D02*
X621Y1419D01*
X611Y1418D02*
X622Y1418D01*
X612Y1417D02*
X626Y1417D01*
X614Y1416D02*
X627Y1416D01*
X615Y1415D02*
X628Y1415D01*
X616Y1414D02*
X628Y1414D01*
X615Y1413D02*
X628Y1413D01*
X614Y1412D02*
X627Y1412D01*
X612Y1411D02*
X626Y1411D01*
X611Y1410D02*
X622Y1410D01*
X609Y1409D02*
X621Y1409D01*
X608Y1408D02*
X619Y1408D01*
X606Y1407D02*
X618Y1407D01*
X605Y1406D02*
X616Y1406D01*
X604Y1405D02*
X615Y1405D01*
X604Y1404D02*
X614Y1404D01*
X604Y1403D02*
X656Y1403D01*
X604Y1402D02*
X657Y1402D01*
X604Y1401D02*
X657Y1401D01*
X604Y1400D02*
X657Y1400D01*
X604Y1399D02*
X657Y1399D01*
X604Y1398D02*
X657Y1398D01*
X605Y1397D02*
X655Y1397D01*
X1006Y1373D02*
X1027Y1373D01*
X1005Y1372D02*
X1028Y1372D01*
X1005Y1371D02*
X1028Y1371D01*
X1004Y1370D02*
X1028Y1370D01*
X1005Y1369D02*
X1028Y1369D01*
X1005Y1368D02*
X1028Y1368D01*
X1007Y1367D02*
X1028Y1367D01*
X1022Y1366D02*
X1028Y1366D01*
X1022Y1365D02*
X1028Y1365D01*
X1022Y1364D02*
X1028Y1364D01*
X1022Y1363D02*
X1028Y1363D01*
X1022Y1362D02*
X1028Y1362D01*
X1022Y1361D02*
X1028Y1361D01*
X975Y1360D02*
X1028Y1360D01*
X975Y1359D02*
X1028Y1359D01*
X975Y1358D02*
X1028Y1358D01*
X975Y1357D02*
X1028Y1357D01*
X975Y1356D02*
X1028Y1356D01*
X975Y1355D02*
X1028Y1355D01*
X975Y1354D02*
X1028Y1354D01*
X975Y1353D02*
X981Y1353D01*
X1022Y1353D02*
X1028Y1353D01*
X975Y1352D02*
X981Y1352D01*
X1022Y1352D02*
X1028Y1352D01*
X975Y1351D02*
X981Y1351D01*
X1022Y1351D02*
X1028Y1351D01*
X975Y1350D02*
X981Y1350D01*
X1022Y1350D02*
X1028Y1350D01*
X975Y1349D02*
X981Y1349D01*
X1022Y1349D02*
X1028Y1349D01*
X975Y1348D02*
X981Y1348D01*
X1022Y1348D02*
X1028Y1348D01*
X975Y1347D02*
X981Y1347D01*
X1022Y1347D02*
X1028Y1347D01*
X975Y1346D02*
X981Y1346D01*
X1022Y1346D02*
X1028Y1346D01*
X975Y1345D02*
X981Y1345D01*
X1022Y1345D02*
X1028Y1345D01*
X975Y1344D02*
X981Y1344D01*
X1022Y1344D02*
X1028Y1344D01*
X975Y1343D02*
X981Y1343D01*
X1022Y1343D02*
X1028Y1343D01*
X975Y1342D02*
X981Y1342D01*
X1022Y1342D02*
X1028Y1342D01*
X976Y1341D02*
X980Y1341D01*
X1023Y1341D02*
X1028Y1341D01*
X977Y1340D02*
X980Y1340D01*
X1024Y1340D02*
X1027Y1340D01*
X981Y1323D02*
X992Y1323D01*
X1023Y1323D02*
X1027Y1323D01*
X980Y1322D02*
X994Y1322D01*
X1021Y1322D02*
X1028Y1322D01*
X978Y1321D02*
X995Y1321D01*
X1020Y1321D02*
X1028Y1321D01*
X977Y1320D02*
X996Y1320D01*
X1018Y1320D02*
X1028Y1320D01*
X977Y1319D02*
X997Y1319D01*
X1016Y1319D02*
X1028Y1319D01*
X976Y1318D02*
X998Y1318D01*
X1015Y1318D02*
X1027Y1318D01*
X976Y1317D02*
X998Y1317D01*
X1013Y1317D02*
X1026Y1317D01*
X975Y1316D02*
X982Y1316D01*
X991Y1316D02*
X998Y1316D01*
X1011Y1316D02*
X1024Y1316D01*
X975Y1315D02*
X982Y1315D01*
X992Y1315D02*
X999Y1315D01*
X1009Y1315D02*
X1022Y1315D01*
X975Y1314D02*
X981Y1314D01*
X993Y1314D02*
X999Y1314D01*
X1008Y1314D02*
X1021Y1314D01*
X975Y1313D02*
X981Y1313D01*
X993Y1313D02*
X999Y1313D01*
X1006Y1313D02*
X1019Y1313D01*
X975Y1312D02*
X981Y1312D01*
X993Y1312D02*
X999Y1312D01*
X1004Y1312D02*
X1017Y1312D01*
X975Y1311D02*
X981Y1311D01*
X993Y1311D02*
X999Y1311D01*
X1003Y1311D02*
X1016Y1311D01*
X975Y1310D02*
X981Y1310D01*
X993Y1310D02*
X999Y1310D01*
X1001Y1310D02*
X1014Y1310D01*
X975Y1309D02*
X981Y1309D01*
X993Y1309D02*
X1012Y1309D01*
X975Y1308D02*
X981Y1308D01*
X993Y1308D02*
X1011Y1308D01*
X975Y1307D02*
X981Y1307D01*
X993Y1307D02*
X1009Y1307D01*
X975Y1306D02*
X981Y1306D01*
X993Y1306D02*
X1007Y1306D01*
X975Y1305D02*
X981Y1305D01*
X993Y1305D02*
X1005Y1305D01*
X975Y1304D02*
X981Y1304D01*
X993Y1304D02*
X1004Y1304D01*
X975Y1303D02*
X981Y1303D01*
X993Y1303D02*
X1002Y1303D01*
X975Y1302D02*
X981Y1302D01*
X993Y1302D02*
X1000Y1302D01*
X975Y1301D02*
X981Y1301D01*
X993Y1301D02*
X999Y1301D01*
X975Y1300D02*
X981Y1300D01*
X993Y1300D02*
X999Y1300D01*
X975Y1299D02*
X981Y1299D01*
X993Y1299D02*
X999Y1299D01*
X975Y1298D02*
X981Y1298D01*
X993Y1298D02*
X999Y1298D01*
X975Y1297D02*
X981Y1297D01*
X993Y1297D02*
X999Y1297D01*
X975Y1296D02*
X1026Y1296D01*
X975Y1295D02*
X1027Y1295D01*
X975Y1294D02*
X1028Y1294D01*
X975Y1293D02*
X1028Y1293D01*
X975Y1292D02*
X1028Y1292D01*
X975Y1291D02*
X1028Y1291D01*
X975Y1290D02*
X1027Y1290D01*
X751Y693D02*
X755Y693D01*
X777Y693D02*
X806Y693D01*
X750Y692D02*
X756Y692D01*
X776Y692D02*
X807Y692D01*
X750Y691D02*
X756Y691D01*
X776Y691D02*
X808Y691D01*
X750Y690D02*
X756Y690D01*
X776Y690D02*
X809Y690D01*
X750Y689D02*
X756Y689D01*
X776Y689D02*
X809Y689D01*
X750Y688D02*
X756Y688D01*
X777Y688D02*
X809Y688D01*
X750Y687D02*
X756Y687D01*
X779Y687D02*
X809Y687D01*
X750Y686D02*
X756Y686D01*
X803Y686D02*
X809Y686D01*
X750Y685D02*
X756Y685D01*
X803Y685D02*
X809Y685D01*
X750Y684D02*
X756Y684D01*
X803Y684D02*
X809Y684D01*
X750Y683D02*
X756Y683D01*
X803Y683D02*
X809Y683D01*
X750Y682D02*
X756Y682D01*
X803Y682D02*
X809Y682D01*
X750Y681D02*
X756Y681D01*
X803Y681D02*
X809Y681D01*
X750Y680D02*
X756Y680D01*
X803Y680D02*
X809Y680D01*
X750Y679D02*
X756Y679D01*
X803Y679D02*
X809Y679D01*
X750Y678D02*
X756Y678D01*
X803Y678D02*
X809Y678D01*
X750Y677D02*
X756Y677D01*
X803Y677D02*
X809Y677D01*
X750Y676D02*
X756Y676D01*
X803Y676D02*
X809Y676D01*
X750Y675D02*
X756Y675D01*
X803Y675D02*
X809Y675D01*
X750Y674D02*
X756Y674D01*
X803Y674D02*
X809Y674D01*
X750Y673D02*
X756Y673D01*
X803Y673D02*
X809Y673D01*
X750Y672D02*
X756Y672D01*
X803Y672D02*
X809Y672D01*
X750Y671D02*
X756Y671D01*
X803Y671D02*
X809Y671D01*
X135Y670D02*
X135Y670D01*
X162Y670D02*
X163Y670D01*
X750Y670D02*
X756Y670D01*
X781Y670D02*
X809Y670D01*
X1484Y670D02*
X1485Y670D01*
X1514Y670D02*
X1538Y670D01*
X133Y669D02*
X137Y669D01*
X161Y669D02*
X165Y669D01*
X750Y669D02*
X756Y669D01*
X779Y669D02*
X809Y669D01*
X1482Y669D02*
X1486Y669D01*
X1514Y669D02*
X1540Y669D01*
X132Y668D02*
X138Y668D01*
X160Y668D02*
X165Y668D01*
X750Y668D02*
X756Y668D01*
X778Y668D02*
X809Y668D01*
X1482Y668D02*
X1487Y668D01*
X1514Y668D02*
X1540Y668D01*
X132Y667D02*
X138Y667D01*
X160Y667D02*
X166Y667D01*
X750Y667D02*
X756Y667D01*
X777Y667D02*
X808Y667D01*
X1481Y667D02*
X1487Y667D01*
X1514Y667D02*
X1541Y667D01*
X132Y666D02*
X138Y666D01*
X160Y666D02*
X166Y666D01*
X750Y666D02*
X756Y666D01*
X776Y666D02*
X808Y666D01*
X1481Y666D02*
X1487Y666D01*
X1514Y666D02*
X1541Y666D01*
X132Y665D02*
X138Y665D01*
X160Y665D02*
X166Y665D01*
X750Y665D02*
X756Y665D01*
X776Y665D02*
X807Y665D01*
X1481Y665D02*
X1487Y665D01*
X1514Y665D02*
X1540Y665D01*
X132Y664D02*
X138Y664D01*
X160Y664D02*
X166Y664D01*
X183Y664D02*
X184Y664D01*
X731Y664D02*
X734Y664D01*
X750Y664D02*
X756Y664D01*
X776Y664D02*
X805Y664D01*
X1481Y664D02*
X1487Y664D01*
X1514Y664D02*
X1539Y664D01*
X132Y663D02*
X138Y663D01*
X160Y663D02*
X166Y663D01*
X181Y663D02*
X185Y663D01*
X730Y663D02*
X735Y663D01*
X750Y663D02*
X756Y663D01*
X776Y663D02*
X782Y663D01*
X1481Y663D02*
X1487Y663D01*
X1514Y663D02*
X1520Y663D01*
X132Y662D02*
X138Y662D01*
X160Y662D02*
X166Y662D01*
X181Y662D02*
X186Y662D01*
X729Y662D02*
X735Y662D01*
X750Y662D02*
X756Y662D01*
X776Y662D02*
X782Y662D01*
X1481Y662D02*
X1487Y662D01*
X1514Y662D02*
X1520Y662D01*
X132Y661D02*
X138Y661D01*
X160Y661D02*
X166Y661D01*
X180Y661D02*
X186Y661D01*
X729Y661D02*
X735Y661D01*
X750Y661D02*
X756Y661D01*
X776Y661D02*
X782Y661D01*
X1481Y661D02*
X1487Y661D01*
X1514Y661D02*
X1520Y661D01*
X132Y660D02*
X138Y660D01*
X160Y660D02*
X166Y660D01*
X180Y660D02*
X186Y660D01*
X729Y660D02*
X735Y660D01*
X750Y660D02*
X756Y660D01*
X776Y660D02*
X782Y660D01*
X1481Y660D02*
X1487Y660D01*
X1514Y660D02*
X1520Y660D01*
X132Y659D02*
X138Y659D01*
X160Y659D02*
X166Y659D01*
X180Y659D02*
X186Y659D01*
X729Y659D02*
X735Y659D01*
X750Y659D02*
X756Y659D01*
X776Y659D02*
X782Y659D01*
X1481Y659D02*
X1487Y659D01*
X1514Y659D02*
X1520Y659D01*
X132Y658D02*
X138Y658D01*
X160Y658D02*
X166Y658D01*
X180Y658D02*
X186Y658D01*
X729Y658D02*
X735Y658D01*
X750Y658D02*
X756Y658D01*
X776Y658D02*
X782Y658D01*
X1481Y658D02*
X1487Y658D01*
X1514Y658D02*
X1520Y658D01*
X132Y657D02*
X138Y657D01*
X160Y657D02*
X166Y657D01*
X180Y657D02*
X186Y657D01*
X729Y657D02*
X735Y657D01*
X750Y657D02*
X756Y657D01*
X776Y657D02*
X782Y657D01*
X1481Y657D02*
X1487Y657D01*
X1514Y657D02*
X1520Y657D01*
X132Y656D02*
X138Y656D01*
X160Y656D02*
X166Y656D01*
X180Y656D02*
X186Y656D01*
X729Y656D02*
X735Y656D01*
X750Y656D02*
X756Y656D01*
X776Y656D02*
X782Y656D01*
X1481Y656D02*
X1487Y656D01*
X1514Y656D02*
X1520Y656D01*
X132Y655D02*
X138Y655D01*
X160Y655D02*
X166Y655D01*
X180Y655D02*
X186Y655D01*
X729Y655D02*
X735Y655D01*
X750Y655D02*
X756Y655D01*
X776Y655D02*
X782Y655D01*
X1481Y655D02*
X1487Y655D01*
X1514Y655D02*
X1520Y655D01*
X132Y654D02*
X138Y654D01*
X160Y654D02*
X166Y654D01*
X180Y654D02*
X186Y654D01*
X729Y654D02*
X735Y654D01*
X750Y654D02*
X756Y654D01*
X776Y654D02*
X782Y654D01*
X1481Y654D02*
X1487Y654D01*
X1514Y654D02*
X1520Y654D01*
X132Y653D02*
X138Y653D01*
X160Y653D02*
X166Y653D01*
X180Y653D02*
X186Y653D01*
X729Y653D02*
X735Y653D01*
X750Y653D02*
X756Y653D01*
X776Y653D02*
X782Y653D01*
X1481Y653D02*
X1487Y653D01*
X1514Y653D02*
X1520Y653D01*
X132Y652D02*
X138Y652D01*
X160Y652D02*
X166Y652D01*
X180Y652D02*
X186Y652D01*
X729Y652D02*
X735Y652D01*
X750Y652D02*
X756Y652D01*
X776Y652D02*
X782Y652D01*
X1481Y652D02*
X1487Y652D01*
X1514Y652D02*
X1520Y652D01*
X132Y651D02*
X138Y651D01*
X160Y651D02*
X166Y651D01*
X180Y651D02*
X186Y651D01*
X729Y651D02*
X735Y651D01*
X750Y651D02*
X756Y651D01*
X776Y651D02*
X782Y651D01*
X1481Y651D02*
X1487Y651D01*
X1514Y651D02*
X1520Y651D01*
X132Y650D02*
X138Y650D01*
X160Y650D02*
X166Y650D01*
X180Y650D02*
X186Y650D01*
X729Y650D02*
X735Y650D01*
X750Y650D02*
X756Y650D01*
X776Y650D02*
X782Y650D01*
X1481Y650D02*
X1487Y650D01*
X1514Y650D02*
X1520Y650D01*
X132Y649D02*
X138Y649D01*
X160Y649D02*
X166Y649D01*
X180Y649D02*
X186Y649D01*
X729Y649D02*
X736Y649D01*
X750Y649D02*
X756Y649D01*
X776Y649D02*
X782Y649D01*
X1481Y649D02*
X1487Y649D01*
X1514Y649D02*
X1520Y649D01*
X132Y648D02*
X138Y648D01*
X160Y648D02*
X166Y648D01*
X180Y648D02*
X186Y648D01*
X730Y648D02*
X736Y648D01*
X749Y648D02*
X756Y648D01*
X776Y648D02*
X782Y648D01*
X1481Y648D02*
X1487Y648D01*
X1514Y648D02*
X1520Y648D01*
X132Y647D02*
X138Y647D01*
X160Y647D02*
X166Y647D01*
X180Y647D02*
X186Y647D01*
X730Y647D02*
X738Y647D01*
X747Y647D02*
X755Y647D01*
X776Y647D02*
X782Y647D01*
X1481Y647D02*
X1487Y647D01*
X1514Y647D02*
X1520Y647D01*
X132Y646D02*
X138Y646D01*
X160Y646D02*
X166Y646D01*
X180Y646D02*
X186Y646D01*
X730Y646D02*
X755Y646D01*
X776Y646D02*
X808Y646D01*
X1481Y646D02*
X1487Y646D01*
X1514Y646D02*
X1537Y646D01*
X132Y645D02*
X138Y645D01*
X160Y645D02*
X166Y645D01*
X180Y645D02*
X186Y645D01*
X731Y645D02*
X754Y645D01*
X776Y645D02*
X809Y645D01*
X1481Y645D02*
X1487Y645D01*
X1514Y645D02*
X1538Y645D01*
X132Y644D02*
X138Y644D01*
X160Y644D02*
X166Y644D01*
X180Y644D02*
X186Y644D01*
X731Y644D02*
X754Y644D01*
X776Y644D02*
X809Y644D01*
X1481Y644D02*
X1487Y644D01*
X1514Y644D02*
X1539Y644D01*
X132Y643D02*
X138Y643D01*
X160Y643D02*
X166Y643D01*
X180Y643D02*
X186Y643D01*
X732Y643D02*
X753Y643D01*
X776Y643D02*
X809Y643D01*
X1481Y643D02*
X1487Y643D01*
X1514Y643D02*
X1540Y643D01*
X132Y642D02*
X138Y642D01*
X160Y642D02*
X166Y642D01*
X180Y642D02*
X186Y642D01*
X733Y642D02*
X752Y642D01*
X776Y642D02*
X809Y642D01*
X1481Y642D02*
X1487Y642D01*
X1514Y642D02*
X1540Y642D01*
X132Y641D02*
X138Y641D01*
X160Y641D02*
X166Y641D01*
X180Y641D02*
X186Y641D01*
X735Y641D02*
X750Y641D01*
X776Y641D02*
X808Y641D01*
X1481Y641D02*
X1487Y641D01*
X1514Y641D02*
X1541Y641D01*
X113Y640D02*
X116Y640D01*
X132Y640D02*
X138Y640D01*
X160Y640D02*
X188Y640D01*
X738Y640D02*
X747Y640D01*
X776Y640D02*
X807Y640D01*
X1462Y640D02*
X1465Y640D01*
X1481Y640D02*
X1487Y640D01*
X1514Y640D02*
X1541Y640D01*
X112Y639D02*
X117Y639D01*
X132Y639D02*
X138Y639D01*
X160Y639D02*
X189Y639D01*
X1461Y639D02*
X1466Y639D01*
X1481Y639D02*
X1487Y639D01*
X1535Y639D02*
X1541Y639D01*
X111Y638D02*
X117Y638D01*
X132Y638D02*
X138Y638D01*
X160Y638D02*
X190Y638D01*
X1461Y638D02*
X1467Y638D01*
X1481Y638D02*
X1487Y638D01*
X1535Y638D02*
X1541Y638D01*
X111Y637D02*
X117Y637D01*
X132Y637D02*
X138Y637D01*
X160Y637D02*
X190Y637D01*
X1461Y637D02*
X1467Y637D01*
X1481Y637D02*
X1487Y637D01*
X1535Y637D02*
X1541Y637D01*
X111Y636D02*
X117Y636D01*
X132Y636D02*
X138Y636D01*
X160Y636D02*
X189Y636D01*
X1461Y636D02*
X1467Y636D01*
X1481Y636D02*
X1487Y636D01*
X1535Y636D02*
X1541Y636D01*
X111Y635D02*
X117Y635D01*
X132Y635D02*
X138Y635D01*
X160Y635D02*
X189Y635D01*
X1461Y635D02*
X1467Y635D01*
X1481Y635D02*
X1487Y635D01*
X1535Y635D02*
X1541Y635D01*
X111Y634D02*
X117Y634D01*
X132Y634D02*
X138Y634D01*
X160Y634D02*
X188Y634D01*
X1461Y634D02*
X1467Y634D01*
X1481Y634D02*
X1487Y634D01*
X1535Y634D02*
X1541Y634D01*
X111Y633D02*
X117Y633D01*
X132Y633D02*
X138Y633D01*
X180Y633D02*
X186Y633D01*
X1461Y633D02*
X1467Y633D01*
X1481Y633D02*
X1487Y633D01*
X1535Y633D02*
X1541Y633D01*
X111Y632D02*
X117Y632D01*
X132Y632D02*
X138Y632D01*
X180Y632D02*
X186Y632D01*
X1461Y632D02*
X1467Y632D01*
X1481Y632D02*
X1487Y632D01*
X1535Y632D02*
X1541Y632D01*
X111Y631D02*
X117Y631D01*
X132Y631D02*
X138Y631D01*
X180Y631D02*
X186Y631D01*
X1461Y631D02*
X1467Y631D01*
X1481Y631D02*
X1487Y631D01*
X1535Y631D02*
X1541Y631D01*
X111Y630D02*
X117Y630D01*
X132Y630D02*
X138Y630D01*
X180Y630D02*
X186Y630D01*
X1461Y630D02*
X1467Y630D01*
X1481Y630D02*
X1487Y630D01*
X1535Y630D02*
X1541Y630D01*
X111Y629D02*
X117Y629D01*
X132Y629D02*
X138Y629D01*
X180Y629D02*
X186Y629D01*
X1461Y629D02*
X1467Y629D01*
X1481Y629D02*
X1487Y629D01*
X1535Y629D02*
X1541Y629D01*
X111Y628D02*
X117Y628D01*
X132Y628D02*
X138Y628D01*
X180Y628D02*
X186Y628D01*
X1461Y628D02*
X1467Y628D01*
X1481Y628D02*
X1487Y628D01*
X1535Y628D02*
X1541Y628D01*
X111Y627D02*
X117Y627D01*
X132Y627D02*
X138Y627D01*
X180Y627D02*
X186Y627D01*
X1461Y627D02*
X1467Y627D01*
X1481Y627D02*
X1487Y627D01*
X1535Y627D02*
X1541Y627D01*
X111Y626D02*
X117Y626D01*
X132Y626D02*
X138Y626D01*
X180Y626D02*
X186Y626D01*
X1461Y626D02*
X1467Y626D01*
X1481Y626D02*
X1487Y626D01*
X1535Y626D02*
X1541Y626D01*
X111Y625D02*
X118Y625D01*
X132Y625D02*
X138Y625D01*
X180Y625D02*
X186Y625D01*
X1461Y625D02*
X1467Y625D01*
X1481Y625D02*
X1487Y625D01*
X1508Y625D02*
X1513Y625D01*
X1535Y625D02*
X1541Y625D01*
X112Y624D02*
X119Y624D01*
X131Y624D02*
X138Y624D01*
X180Y624D02*
X186Y624D01*
X1461Y624D02*
X1468Y624D01*
X1480Y624D02*
X1487Y624D01*
X1508Y624D02*
X1515Y624D01*
X1535Y624D02*
X1541Y624D01*
X112Y623D02*
X137Y623D01*
X180Y623D02*
X186Y623D01*
X1461Y623D02*
X1487Y623D01*
X1507Y623D02*
X1541Y623D01*
X112Y622D02*
X137Y622D01*
X180Y622D02*
X186Y622D01*
X1462Y622D02*
X1486Y622D01*
X1507Y622D02*
X1541Y622D01*
X113Y621D02*
X136Y621D01*
X180Y621D02*
X186Y621D01*
X1462Y621D02*
X1486Y621D01*
X1508Y621D02*
X1540Y621D01*
X114Y620D02*
X136Y620D01*
X180Y620D02*
X186Y620D01*
X1463Y620D02*
X1485Y620D01*
X1508Y620D02*
X1540Y620D01*
X115Y619D02*
X135Y619D01*
X180Y619D02*
X186Y619D01*
X1464Y619D02*
X1484Y619D01*
X1510Y619D02*
X1539Y619D01*
X116Y618D02*
X134Y618D01*
X181Y618D02*
X186Y618D01*
X1465Y618D02*
X1483Y618D01*
X1512Y618D02*
X1539Y618D01*
X117Y617D02*
X132Y617D01*
X181Y617D02*
X185Y617D01*
X1467Y617D02*
X1481Y617D01*
X1514Y617D02*
X1537Y617D01*
X122Y616D02*
X127Y616D01*
X1471Y616D02*
X1477Y616D01*
X1519Y616D02*
X1534Y616D01*
X779Y594D02*
X782Y594D01*
X751Y593D02*
X755Y593D01*
X777Y593D02*
X784Y593D01*
X750Y592D02*
X756Y592D01*
X776Y592D02*
X785Y592D01*
X750Y591D02*
X756Y591D01*
X776Y591D02*
X785Y591D01*
X750Y590D02*
X756Y590D01*
X776Y590D02*
X785Y590D01*
X750Y589D02*
X756Y589D01*
X776Y589D02*
X785Y589D01*
X750Y588D02*
X756Y588D01*
X776Y588D02*
X784Y588D01*
X750Y587D02*
X756Y587D01*
X776Y587D02*
X782Y587D01*
X750Y586D02*
X756Y586D01*
X776Y586D02*
X782Y586D01*
X750Y585D02*
X756Y585D01*
X776Y585D02*
X782Y585D01*
X750Y584D02*
X756Y584D01*
X776Y584D02*
X782Y584D01*
X750Y583D02*
X756Y583D01*
X776Y583D02*
X782Y583D01*
X750Y582D02*
X756Y582D01*
X776Y582D02*
X782Y582D01*
X750Y581D02*
X756Y581D01*
X776Y581D02*
X782Y581D01*
X750Y580D02*
X756Y580D01*
X776Y580D02*
X782Y580D01*
X750Y579D02*
X756Y579D01*
X776Y579D02*
X782Y579D01*
X750Y578D02*
X756Y578D01*
X776Y578D02*
X782Y578D01*
X750Y577D02*
X756Y577D01*
X776Y577D02*
X782Y577D01*
X750Y576D02*
X756Y576D01*
X776Y576D02*
X782Y576D01*
X750Y575D02*
X756Y575D01*
X776Y575D02*
X782Y575D01*
X750Y574D02*
X756Y574D01*
X776Y574D02*
X782Y574D01*
X750Y573D02*
X756Y573D01*
X776Y573D02*
X782Y573D01*
X750Y572D02*
X756Y572D01*
X776Y572D02*
X782Y572D01*
X750Y571D02*
X756Y571D01*
X776Y571D02*
X782Y571D01*
X750Y570D02*
X756Y570D01*
X776Y570D02*
X782Y570D01*
X750Y569D02*
X756Y569D01*
X776Y569D02*
X782Y569D01*
X750Y568D02*
X756Y568D01*
X776Y568D02*
X782Y568D01*
X750Y567D02*
X756Y567D01*
X776Y567D02*
X782Y567D01*
X750Y566D02*
X756Y566D01*
X776Y566D02*
X782Y566D01*
X750Y565D02*
X756Y565D01*
X776Y565D02*
X782Y565D01*
X731Y564D02*
X734Y564D01*
X750Y564D02*
X756Y564D01*
X776Y564D02*
X808Y564D01*
X730Y563D02*
X735Y563D01*
X750Y563D02*
X756Y563D01*
X776Y563D02*
X809Y563D01*
X729Y562D02*
X735Y562D01*
X750Y562D02*
X756Y562D01*
X776Y562D02*
X809Y562D01*
X729Y561D02*
X735Y561D01*
X750Y561D02*
X756Y561D01*
X776Y561D02*
X809Y561D01*
X729Y560D02*
X735Y560D01*
X750Y560D02*
X756Y560D01*
X776Y560D02*
X809Y560D01*
X729Y559D02*
X735Y559D01*
X750Y559D02*
X756Y559D01*
X776Y559D02*
X809Y559D01*
X729Y558D02*
X735Y558D01*
X750Y558D02*
X756Y558D01*
X776Y558D02*
X809Y558D01*
X729Y557D02*
X735Y557D01*
X750Y557D02*
X756Y557D01*
X776Y557D02*
X782Y557D01*
X803Y557D02*
X809Y557D01*
X729Y556D02*
X735Y556D01*
X750Y556D02*
X756Y556D01*
X776Y556D02*
X782Y556D01*
X803Y556D02*
X809Y556D01*
X729Y555D02*
X735Y555D01*
X750Y555D02*
X756Y555D01*
X776Y555D02*
X782Y555D01*
X803Y555D02*
X809Y555D01*
X729Y554D02*
X735Y554D01*
X750Y554D02*
X756Y554D01*
X776Y554D02*
X782Y554D01*
X803Y554D02*
X809Y554D01*
X729Y553D02*
X735Y553D01*
X750Y553D02*
X756Y553D01*
X776Y553D02*
X782Y553D01*
X803Y553D02*
X809Y553D01*
X729Y552D02*
X735Y552D01*
X750Y552D02*
X756Y552D01*
X776Y552D02*
X782Y552D01*
X803Y552D02*
X809Y552D01*
X729Y551D02*
X735Y551D01*
X750Y551D02*
X756Y551D01*
X776Y551D02*
X782Y551D01*
X803Y551D02*
X809Y551D01*
X729Y550D02*
X735Y550D01*
X750Y550D02*
X756Y550D01*
X776Y550D02*
X782Y550D01*
X803Y550D02*
X809Y550D01*
X729Y549D02*
X736Y549D01*
X750Y549D02*
X756Y549D01*
X776Y549D02*
X782Y549D01*
X803Y549D02*
X809Y549D01*
X730Y548D02*
X736Y548D01*
X749Y548D02*
X756Y548D01*
X776Y548D02*
X782Y548D01*
X803Y548D02*
X809Y548D01*
X730Y547D02*
X738Y547D01*
X747Y547D02*
X755Y547D01*
X776Y547D02*
X782Y547D01*
X803Y547D02*
X809Y547D01*
X730Y546D02*
X755Y546D01*
X776Y546D02*
X809Y546D01*
X731Y545D02*
X754Y545D01*
X776Y545D02*
X809Y545D01*
X731Y544D02*
X754Y544D01*
X776Y544D02*
X809Y544D01*
X732Y543D02*
X753Y543D01*
X776Y543D02*
X809Y543D01*
X734Y542D02*
X752Y542D01*
X776Y542D02*
X809Y542D01*
X735Y541D02*
X750Y541D01*
X777Y541D02*
X808Y541D01*
X1044Y541D02*
X1064Y541D01*
X738Y540D02*
X747Y540D01*
X779Y540D02*
X807Y540D01*
X1043Y540D02*
X1065Y540D01*
X1043Y539D02*
X1066Y539D01*
X1042Y538D02*
X1066Y538D01*
X1043Y537D02*
X1066Y537D01*
X1043Y536D02*
X1066Y536D01*
X1044Y535D02*
X1066Y535D01*
X1060Y534D02*
X1066Y534D01*
X1060Y533D02*
X1066Y533D01*
X1060Y532D02*
X1066Y532D01*
X1060Y531D02*
X1066Y531D01*
X1060Y530D02*
X1066Y530D01*
X1060Y529D02*
X1066Y529D01*
X1060Y528D02*
X1066Y528D01*
X1013Y527D02*
X1066Y527D01*
X1013Y526D02*
X1066Y526D01*
X1297Y526D02*
X1318Y526D01*
X1342Y526D02*
X1344Y526D01*
X1013Y525D02*
X1066Y525D01*
X1296Y525D02*
X1320Y525D01*
X1341Y525D02*
X1345Y525D01*
X1013Y524D02*
X1066Y524D01*
X1295Y524D02*
X1321Y524D01*
X1340Y524D02*
X1346Y524D01*
X1013Y523D02*
X1066Y523D01*
X1294Y523D02*
X1321Y523D01*
X1340Y523D02*
X1346Y523D01*
X1013Y522D02*
X1066Y522D01*
X1293Y522D02*
X1322Y522D01*
X1340Y522D02*
X1346Y522D01*
X1013Y521D02*
X1066Y521D01*
X1293Y521D02*
X1322Y521D01*
X1340Y521D02*
X1346Y521D01*
X1013Y520D02*
X1019Y520D01*
X1060Y520D02*
X1066Y520D01*
X1293Y520D02*
X1322Y520D01*
X1340Y520D02*
X1346Y520D01*
X1013Y519D02*
X1019Y519D01*
X1060Y519D02*
X1066Y519D01*
X1293Y519D02*
X1299Y519D01*
X1316Y519D02*
X1322Y519D01*
X1340Y519D02*
X1346Y519D01*
X1013Y518D02*
X1019Y518D01*
X1060Y518D02*
X1066Y518D01*
X1293Y518D02*
X1299Y518D01*
X1316Y518D02*
X1322Y518D01*
X1340Y518D02*
X1346Y518D01*
X1013Y517D02*
X1019Y517D01*
X1060Y517D02*
X1066Y517D01*
X1293Y517D02*
X1299Y517D01*
X1316Y517D02*
X1322Y517D01*
X1340Y517D02*
X1346Y517D01*
X1013Y516D02*
X1019Y516D01*
X1060Y516D02*
X1066Y516D01*
X1293Y516D02*
X1299Y516D01*
X1316Y516D02*
X1322Y516D01*
X1340Y516D02*
X1346Y516D01*
X1013Y515D02*
X1019Y515D01*
X1060Y515D02*
X1066Y515D01*
X1293Y515D02*
X1299Y515D01*
X1316Y515D02*
X1322Y515D01*
X1340Y515D02*
X1346Y515D01*
X1013Y514D02*
X1019Y514D01*
X1060Y514D02*
X1066Y514D01*
X1293Y514D02*
X1299Y514D01*
X1316Y514D02*
X1322Y514D01*
X1340Y514D02*
X1346Y514D01*
X1013Y513D02*
X1019Y513D01*
X1060Y513D02*
X1066Y513D01*
X1293Y513D02*
X1299Y513D01*
X1316Y513D02*
X1322Y513D01*
X1340Y513D02*
X1346Y513D01*
X1013Y512D02*
X1019Y512D01*
X1060Y512D02*
X1066Y512D01*
X1293Y512D02*
X1299Y512D01*
X1316Y512D02*
X1322Y512D01*
X1340Y512D02*
X1346Y512D01*
X1013Y511D02*
X1019Y511D01*
X1060Y511D02*
X1066Y511D01*
X1293Y511D02*
X1299Y511D01*
X1316Y511D02*
X1322Y511D01*
X1340Y511D02*
X1346Y511D01*
X1013Y510D02*
X1019Y510D01*
X1060Y510D02*
X1066Y510D01*
X1293Y510D02*
X1299Y510D01*
X1316Y510D02*
X1322Y510D01*
X1340Y510D02*
X1346Y510D01*
X1013Y509D02*
X1019Y509D01*
X1060Y509D02*
X1066Y509D01*
X1293Y509D02*
X1299Y509D01*
X1316Y509D02*
X1322Y509D01*
X1340Y509D02*
X1346Y509D01*
X1014Y508D02*
X1018Y508D01*
X1061Y508D02*
X1065Y508D01*
X1293Y508D02*
X1299Y508D01*
X1316Y508D02*
X1322Y508D01*
X1340Y508D02*
X1346Y508D01*
X1293Y507D02*
X1299Y507D01*
X1316Y507D02*
X1322Y507D01*
X1340Y507D02*
X1346Y507D01*
X1293Y506D02*
X1299Y506D01*
X1316Y506D02*
X1322Y506D01*
X1340Y506D02*
X1346Y506D01*
X1293Y505D02*
X1299Y505D01*
X1316Y505D02*
X1322Y505D01*
X1340Y505D02*
X1346Y505D01*
X1293Y504D02*
X1299Y504D01*
X1316Y504D02*
X1322Y504D01*
X1340Y504D02*
X1346Y504D01*
X1293Y503D02*
X1299Y503D01*
X1316Y503D02*
X1322Y503D01*
X1340Y503D02*
X1346Y503D01*
X1293Y502D02*
X1299Y502D01*
X1316Y502D02*
X1322Y502D01*
X1340Y502D02*
X1346Y502D01*
X1293Y501D02*
X1299Y501D01*
X1316Y501D02*
X1322Y501D01*
X1340Y501D02*
X1346Y501D01*
X1293Y500D02*
X1299Y500D01*
X1316Y500D02*
X1322Y500D01*
X1340Y500D02*
X1346Y500D01*
X1293Y499D02*
X1299Y499D01*
X1316Y499D02*
X1346Y499D01*
X1293Y498D02*
X1299Y498D01*
X1317Y498D02*
X1346Y498D01*
X1293Y497D02*
X1299Y497D01*
X1317Y497D02*
X1346Y497D01*
X1293Y496D02*
X1299Y496D01*
X1317Y496D02*
X1346Y496D01*
X1293Y495D02*
X1299Y495D01*
X1318Y495D02*
X1346Y495D01*
X1293Y494D02*
X1298Y494D01*
X1319Y494D02*
X1346Y494D01*
X1294Y493D02*
X1298Y493D01*
X1320Y493D02*
X1346Y493D01*
X1015Y491D02*
X1017Y491D01*
X1062Y491D02*
X1064Y491D01*
X1014Y490D02*
X1018Y490D01*
X1061Y490D02*
X1065Y490D01*
X1013Y489D02*
X1019Y489D01*
X1060Y489D02*
X1066Y489D01*
X1013Y488D02*
X1019Y488D01*
X1060Y488D02*
X1066Y488D01*
X1013Y487D02*
X1019Y487D01*
X1060Y487D02*
X1066Y487D01*
X1013Y486D02*
X1019Y486D01*
X1060Y486D02*
X1066Y486D01*
X1013Y485D02*
X1019Y485D01*
X1060Y485D02*
X1066Y485D01*
X1013Y484D02*
X1019Y484D01*
X1060Y484D02*
X1066Y484D01*
X1013Y483D02*
X1019Y483D01*
X1060Y483D02*
X1066Y483D01*
X1013Y482D02*
X1019Y482D01*
X1060Y482D02*
X1066Y482D01*
X1013Y481D02*
X1019Y481D01*
X1060Y481D02*
X1066Y481D01*
X1013Y480D02*
X1019Y480D01*
X1060Y480D02*
X1066Y480D01*
X1013Y479D02*
X1019Y479D01*
X1060Y479D02*
X1066Y479D01*
X1013Y478D02*
X1019Y478D01*
X1060Y478D02*
X1066Y478D01*
X1013Y477D02*
X1019Y477D01*
X1060Y477D02*
X1066Y477D01*
X1013Y476D02*
X1019Y476D01*
X1060Y476D02*
X1066Y476D01*
X1295Y476D02*
X1297Y476D01*
X1342Y476D02*
X1344Y476D01*
X1013Y475D02*
X1019Y475D01*
X1060Y475D02*
X1066Y475D01*
X1294Y475D02*
X1298Y475D01*
X1341Y475D02*
X1345Y475D01*
X1013Y474D02*
X1019Y474D01*
X1060Y474D02*
X1066Y474D01*
X1293Y474D02*
X1299Y474D01*
X1340Y474D02*
X1346Y474D01*
X1013Y473D02*
X1020Y473D01*
X1059Y473D02*
X1066Y473D01*
X1293Y473D02*
X1299Y473D01*
X1340Y473D02*
X1346Y473D01*
X1013Y472D02*
X1021Y472D01*
X1058Y472D02*
X1066Y472D01*
X1293Y472D02*
X1299Y472D01*
X1340Y472D02*
X1346Y472D01*
X1014Y471D02*
X1023Y471D01*
X1056Y471D02*
X1065Y471D01*
X1293Y471D02*
X1299Y471D01*
X1340Y471D02*
X1346Y471D01*
X1014Y470D02*
X1025Y470D01*
X1054Y470D02*
X1065Y470D01*
X1293Y470D02*
X1299Y470D01*
X1340Y470D02*
X1346Y470D01*
X1015Y469D02*
X1027Y469D01*
X1052Y469D02*
X1064Y469D01*
X1293Y469D02*
X1299Y469D01*
X1340Y469D02*
X1346Y469D01*
X1016Y468D02*
X1029Y468D01*
X1050Y468D02*
X1063Y468D01*
X1293Y468D02*
X1299Y468D01*
X1340Y468D02*
X1346Y468D01*
X1017Y467D02*
X1031Y467D01*
X1048Y467D02*
X1062Y467D01*
X1293Y467D02*
X1299Y467D01*
X1340Y467D02*
X1346Y467D01*
X1018Y466D02*
X1033Y466D01*
X1046Y466D02*
X1061Y466D01*
X1293Y466D02*
X1299Y466D01*
X1340Y466D02*
X1346Y466D01*
X1020Y465D02*
X1035Y465D01*
X1044Y465D02*
X1059Y465D01*
X1293Y465D02*
X1299Y465D01*
X1340Y465D02*
X1346Y465D01*
X1022Y464D02*
X1057Y464D01*
X1293Y464D02*
X1299Y464D01*
X1340Y464D02*
X1346Y464D01*
X1024Y463D02*
X1055Y463D01*
X1293Y463D02*
X1299Y463D01*
X1340Y463D02*
X1346Y463D01*
X1026Y462D02*
X1053Y462D01*
X1293Y462D02*
X1299Y462D01*
X1340Y462D02*
X1346Y462D01*
X1028Y461D02*
X1051Y461D01*
X1293Y461D02*
X1299Y461D01*
X1340Y461D02*
X1346Y461D01*
X1030Y460D02*
X1049Y460D01*
X1293Y460D02*
X1299Y460D01*
X1340Y460D02*
X1346Y460D01*
X1032Y459D02*
X1047Y459D01*
X1293Y459D02*
X1299Y459D01*
X1340Y459D02*
X1346Y459D01*
X1035Y458D02*
X1044Y458D01*
X1293Y458D02*
X1300Y458D01*
X1339Y458D02*
X1346Y458D01*
X1293Y457D02*
X1301Y457D01*
X1338Y457D02*
X1345Y457D01*
X1294Y456D02*
X1303Y456D01*
X1336Y456D02*
X1345Y456D01*
X1294Y455D02*
X1305Y455D01*
X1334Y455D02*
X1345Y455D01*
X1295Y454D02*
X1307Y454D01*
X1332Y454D02*
X1344Y454D01*
X1296Y453D02*
X1309Y453D01*
X1330Y453D02*
X1343Y453D01*
X1297Y452D02*
X1311Y452D01*
X1328Y452D02*
X1342Y452D01*
X1298Y451D02*
X1313Y451D01*
X1326Y451D02*
X1340Y451D01*
X1300Y450D02*
X1315Y450D01*
X1324Y450D02*
X1339Y450D01*
X1302Y449D02*
X1337Y449D01*
X1304Y448D02*
X1335Y448D01*
X1306Y447D02*
X1333Y447D01*
X1308Y446D02*
X1331Y446D01*
X1310Y445D02*
X1329Y445D01*
X1312Y444D02*
X1327Y444D01*
X1315Y443D02*
X1324Y443D01*
X1397Y399D02*
X1398Y399D01*
X1497Y399D02*
X1497Y399D01*
X1395Y398D02*
X1399Y398D01*
X1495Y398D02*
X1499Y398D01*
X1394Y397D02*
X1400Y397D01*
X1494Y397D02*
X1500Y397D01*
X1393Y396D02*
X1401Y396D01*
X1494Y396D02*
X1501Y396D01*
X1392Y395D02*
X1401Y395D01*
X1494Y395D02*
X1502Y395D01*
X1391Y394D02*
X1400Y394D01*
X1494Y394D02*
X1503Y394D01*
X1391Y393D02*
X1400Y393D01*
X1494Y393D02*
X1504Y393D01*
X1390Y392D02*
X1399Y392D01*
X1495Y392D02*
X1504Y392D01*
X1389Y391D02*
X1398Y391D01*
X1496Y391D02*
X1505Y391D01*
X1388Y390D02*
X1397Y390D01*
X1497Y390D02*
X1506Y390D01*
X1388Y389D02*
X1397Y389D01*
X1498Y389D02*
X1507Y389D01*
X1387Y388D02*
X1396Y388D01*
X1498Y388D02*
X1507Y388D01*
X1386Y387D02*
X1395Y387D01*
X1499Y387D02*
X1508Y387D01*
X1386Y386D02*
X1394Y386D01*
X1500Y386D02*
X1509Y386D01*
X1385Y385D02*
X1394Y385D01*
X1501Y385D02*
X1509Y385D01*
X1385Y384D02*
X1393Y384D01*
X1501Y384D02*
X1510Y384D01*
X1384Y383D02*
X1392Y383D01*
X1502Y383D02*
X1510Y383D01*
X1383Y382D02*
X1392Y382D01*
X1503Y382D02*
X1511Y382D01*
X1383Y381D02*
X1391Y381D01*
X1503Y381D02*
X1511Y381D01*
X1382Y380D02*
X1390Y380D01*
X1504Y380D02*
X1512Y380D01*
X1382Y379D02*
X1390Y379D01*
X1504Y379D02*
X1512Y379D01*
X1381Y378D02*
X1389Y378D01*
X1505Y378D02*
X1513Y378D01*
X1381Y377D02*
X1389Y377D01*
X1506Y377D02*
X1513Y377D01*
X1380Y376D02*
X1388Y376D01*
X1506Y376D02*
X1514Y376D01*
X1380Y375D02*
X1388Y375D01*
X1507Y375D02*
X1514Y375D01*
X1380Y374D02*
X1387Y374D01*
X1507Y374D02*
X1515Y374D01*
X1379Y373D02*
X1408Y373D01*
X1487Y373D02*
X1515Y373D01*
X1379Y372D02*
X1409Y372D01*
X1485Y372D02*
X1515Y372D01*
X1378Y371D02*
X1410Y371D01*
X1484Y371D02*
X1516Y371D01*
X1378Y370D02*
X1410Y370D01*
X1484Y370D02*
X1516Y370D01*
X1378Y369D02*
X1411Y369D01*
X1484Y369D02*
X1516Y369D01*
X1377Y368D02*
X1410Y368D01*
X1484Y368D02*
X1517Y368D01*
X1377Y367D02*
X1410Y367D01*
X1484Y367D02*
X1517Y367D01*
X1377Y366D02*
X1409Y366D01*
X1485Y366D02*
X1517Y366D01*
X1377Y365D02*
X1384Y365D01*
X1510Y365D02*
X1518Y365D01*
X1376Y364D02*
X1383Y364D01*
X1511Y364D02*
X1518Y364D01*
X1376Y363D02*
X1383Y363D01*
X1511Y363D02*
X1518Y363D01*
X1376Y362D02*
X1383Y362D01*
X1511Y362D02*
X1518Y362D01*
X1376Y361D02*
X1383Y361D01*
X1512Y361D02*
X1519Y361D01*
X1375Y360D02*
X1382Y360D01*
X1512Y360D02*
X1519Y360D01*
X1375Y359D02*
X1382Y359D01*
X1512Y359D02*
X1519Y359D01*
X1375Y358D02*
X1382Y358D01*
X1512Y358D02*
X1519Y358D01*
X1375Y357D02*
X1382Y357D01*
X1512Y357D02*
X1519Y357D01*
X1375Y356D02*
X1382Y356D01*
X1513Y356D02*
X1520Y356D01*
X1375Y355D02*
X1382Y355D01*
X1513Y355D02*
X1520Y355D01*
X1374Y354D02*
X1381Y354D01*
X1513Y354D02*
X1520Y354D01*
X1374Y353D02*
X1381Y353D01*
X1513Y353D02*
X1520Y353D01*
X1374Y352D02*
X1381Y352D01*
X1513Y352D02*
X1520Y352D01*
X1374Y351D02*
X1381Y351D01*
X1513Y351D02*
X1520Y351D01*
X1374Y350D02*
X1381Y350D01*
X1513Y350D02*
X1520Y350D01*
X1374Y349D02*
X1381Y349D01*
X1513Y349D02*
X1520Y349D01*
X1374Y348D02*
X1381Y348D01*
X1513Y348D02*
X1520Y348D01*
X1374Y347D02*
X1381Y347D01*
X1513Y347D02*
X1520Y347D01*
X1374Y346D02*
X1381Y346D01*
X1514Y346D02*
X1521Y346D01*
X1374Y345D02*
X1381Y345D01*
X1514Y345D02*
X1521Y345D01*
X1374Y344D02*
X1381Y344D01*
X1514Y344D02*
X1521Y344D01*
X1374Y343D02*
X1381Y343D01*
X1514Y343D02*
X1521Y343D01*
X1374Y342D02*
X1381Y342D01*
X1513Y342D02*
X1520Y342D01*
X1374Y341D02*
X1381Y341D01*
X1513Y341D02*
X1520Y341D01*
X1374Y340D02*
X1381Y340D01*
X1513Y340D02*
X1520Y340D01*
X1374Y339D02*
X1381Y339D01*
X1513Y339D02*
X1520Y339D01*
X1374Y338D02*
X1381Y338D01*
X1513Y338D02*
X1520Y338D01*
X1374Y337D02*
X1381Y337D01*
X1513Y337D02*
X1520Y337D01*
X1374Y336D02*
X1381Y336D01*
X1513Y336D02*
X1520Y336D01*
X1374Y335D02*
X1381Y335D01*
X1513Y335D02*
X1520Y335D01*
X1374Y334D02*
X1381Y334D01*
X1513Y334D02*
X1520Y334D01*
X1375Y333D02*
X1382Y333D01*
X1513Y333D02*
X1520Y333D01*
X1375Y332D02*
X1382Y332D01*
X1513Y332D02*
X1520Y332D01*
X1375Y331D02*
X1382Y331D01*
X1512Y331D02*
X1519Y331D01*
X1375Y330D02*
X1382Y330D01*
X1512Y330D02*
X1519Y330D01*
X1375Y329D02*
X1382Y329D01*
X1512Y329D02*
X1519Y329D01*
X1375Y328D02*
X1383Y328D01*
X1512Y328D02*
X1519Y328D01*
X1376Y327D02*
X1383Y327D01*
X1511Y327D02*
X1519Y327D01*
X1376Y326D02*
X1383Y326D01*
X1511Y326D02*
X1518Y326D01*
X1376Y325D02*
X1383Y325D01*
X1511Y325D02*
X1518Y325D01*
X1376Y324D02*
X1384Y324D01*
X1511Y324D02*
X1518Y324D01*
X1377Y323D02*
X1384Y323D01*
X1510Y323D02*
X1518Y323D01*
X1377Y322D02*
X1384Y322D01*
X1510Y322D02*
X1517Y322D01*
X1377Y321D02*
X1385Y321D01*
X1510Y321D02*
X1517Y321D01*
X1378Y320D02*
X1385Y320D01*
X1509Y320D02*
X1517Y320D01*
X1378Y319D02*
X1385Y319D01*
X1509Y319D02*
X1516Y319D01*
X1378Y318D02*
X1386Y318D01*
X1509Y318D02*
X1516Y318D01*
X1379Y317D02*
X1386Y317D01*
X1508Y317D02*
X1516Y317D01*
X1379Y316D02*
X1386Y316D01*
X1508Y316D02*
X1515Y316D01*
X1379Y315D02*
X1387Y315D01*
X1507Y315D02*
X1515Y315D01*
X1140Y314D02*
X1144Y314D01*
X1250Y314D02*
X1254Y314D01*
X1380Y314D02*
X1387Y314D01*
X1507Y314D02*
X1514Y314D01*
X1139Y313D02*
X1146Y313D01*
X1249Y313D02*
X1256Y313D01*
X1380Y313D02*
X1388Y313D01*
X1506Y313D02*
X1514Y313D01*
X1138Y312D02*
X1146Y312D01*
X1248Y312D02*
X1256Y312D01*
X1381Y312D02*
X1388Y312D01*
X1506Y312D02*
X1514Y312D01*
X1138Y311D02*
X1147Y311D01*
X1248Y311D02*
X1257Y311D01*
X1381Y311D02*
X1389Y311D01*
X1505Y311D02*
X1513Y311D01*
X1137Y310D02*
X1147Y310D01*
X1247Y310D02*
X1257Y310D01*
X1382Y310D02*
X1389Y310D01*
X1505Y310D02*
X1513Y310D01*
X1137Y309D02*
X1147Y309D01*
X1247Y309D02*
X1257Y309D01*
X1382Y309D02*
X1390Y309D01*
X1504Y309D02*
X1512Y309D01*
X1137Y308D02*
X1147Y308D01*
X1247Y308D02*
X1257Y308D01*
X1383Y308D02*
X1391Y308D01*
X1504Y308D02*
X1512Y308D01*
X1137Y307D02*
X1147Y307D01*
X1247Y307D02*
X1257Y307D01*
X1383Y307D02*
X1391Y307D01*
X1503Y307D02*
X1511Y307D01*
X1137Y306D02*
X1147Y306D01*
X1247Y306D02*
X1257Y306D01*
X1384Y306D02*
X1392Y306D01*
X1502Y306D02*
X1511Y306D01*
X1137Y305D02*
X1147Y305D01*
X1247Y305D02*
X1257Y305D01*
X1384Y305D02*
X1393Y305D01*
X1502Y305D02*
X1510Y305D01*
X1137Y304D02*
X1147Y304D01*
X1247Y304D02*
X1257Y304D01*
X1385Y304D02*
X1393Y304D01*
X1501Y304D02*
X1509Y304D01*
X1137Y303D02*
X1147Y303D01*
X1247Y303D02*
X1257Y303D01*
X1385Y303D02*
X1394Y303D01*
X1500Y303D02*
X1509Y303D01*
X1137Y302D02*
X1147Y302D01*
X1247Y302D02*
X1257Y302D01*
X1386Y302D02*
X1395Y302D01*
X1500Y302D02*
X1508Y302D01*
X1137Y301D02*
X1147Y301D01*
X1247Y301D02*
X1257Y301D01*
X1387Y301D02*
X1395Y301D01*
X1499Y301D02*
X1508Y301D01*
X1137Y300D02*
X1147Y300D01*
X1247Y300D02*
X1257Y300D01*
X1387Y300D02*
X1396Y300D01*
X1498Y300D02*
X1507Y300D01*
X1137Y299D02*
X1147Y299D01*
X1247Y299D02*
X1257Y299D01*
X1388Y299D02*
X1397Y299D01*
X1497Y299D02*
X1506Y299D01*
X1137Y298D02*
X1147Y298D01*
X1247Y298D02*
X1257Y298D01*
X1389Y298D02*
X1398Y298D01*
X1496Y298D02*
X1506Y298D01*
X1137Y297D02*
X1147Y297D01*
X1247Y297D02*
X1257Y297D01*
X1389Y297D02*
X1399Y297D01*
X1496Y297D02*
X1505Y297D01*
X1137Y296D02*
X1147Y296D01*
X1247Y296D02*
X1257Y296D01*
X1390Y296D02*
X1400Y296D01*
X1495Y296D02*
X1504Y296D01*
X1137Y295D02*
X1147Y295D01*
X1247Y295D02*
X1257Y295D01*
X1391Y295D02*
X1400Y295D01*
X1494Y295D02*
X1503Y295D01*
X1137Y294D02*
X1147Y294D01*
X1247Y294D02*
X1257Y294D01*
X1392Y294D02*
X1400Y294D01*
X1494Y294D02*
X1502Y294D01*
X1137Y293D02*
X1147Y293D01*
X1247Y293D02*
X1257Y293D01*
X1393Y293D02*
X1401Y293D01*
X1494Y293D02*
X1502Y293D01*
X1137Y292D02*
X1147Y292D01*
X1247Y292D02*
X1257Y292D01*
X1393Y292D02*
X1400Y292D01*
X1494Y292D02*
X1501Y292D01*
X1137Y291D02*
X1147Y291D01*
X1247Y291D02*
X1257Y291D01*
X1394Y291D02*
X1400Y291D01*
X1494Y291D02*
X1500Y291D01*
X1137Y290D02*
X1147Y290D01*
X1247Y290D02*
X1257Y290D01*
X1395Y290D02*
X1399Y290D01*
X1495Y290D02*
X1499Y290D01*
X1137Y289D02*
X1147Y289D01*
X1247Y289D02*
X1257Y289D01*
X1137Y288D02*
X1147Y288D01*
X1247Y288D02*
X1257Y288D01*
X1137Y287D02*
X1147Y287D01*
X1247Y287D02*
X1257Y287D01*
X1137Y286D02*
X1147Y286D01*
X1247Y286D02*
X1257Y286D01*
X1137Y285D02*
X1147Y285D01*
X1247Y285D02*
X1257Y285D01*
X1137Y284D02*
X1147Y284D01*
X1247Y284D02*
X1257Y284D01*
X1137Y283D02*
X1147Y283D01*
X1247Y283D02*
X1257Y283D01*
X1137Y282D02*
X1147Y282D01*
X1247Y282D02*
X1257Y282D01*
X1137Y281D02*
X1147Y281D01*
X1247Y281D02*
X1257Y281D01*
X1137Y280D02*
X1147Y280D01*
X1247Y280D02*
X1257Y280D01*
X1137Y279D02*
X1147Y279D01*
X1247Y279D02*
X1257Y279D01*
X1138Y278D02*
X1147Y278D01*
X1247Y278D02*
X1257Y278D01*
X1138Y277D02*
X1147Y277D01*
X1248Y277D02*
X1257Y277D01*
X1138Y276D02*
X1146Y276D01*
X1248Y276D02*
X1256Y276D01*
X1139Y275D02*
X1145Y275D01*
X1249Y275D02*
X1255Y275D01*
X1141Y274D02*
X1143Y274D01*
X1251Y274D02*
X1253Y274D01*
D02*
G04 End of Silk1*
M02*